<svg xmlns="http://www.w3.org/2000/svg" direction="ltr" width="286.25" height="77.75" viewBox="-960.25 -437 286.25 77.75" stroke-linecap="round" stroke-linejoin="round" data-color-mode="dark" class="tl-container tl-theme__force-sRGB tl-theme__dark" style="background-color: transparent;"><defs/><g transform="matrix(1, 0, 0, 1, -944.25, -421)" opacity="1"><path stroke-width="3.5" d="M 6.167 0.1475 L 248.1172 0.8008 Q 255.1172 0.8008 255.1172 7.8008 L 254.4055 39.8263 Q 254.4055 46.8263 247.4055 46.8263 L 7.0095 44.6702 Q 0.0095 44.6702 0.0095 37.6702 L -0.833 7.1475 Q -0.833 0.1475 6.167 0.1475 M 6.8112 0.373 L 247.9588 1.0455 Q 254.9588 1.0455 254.9588 8.0455 L 253.8629 37.827 Q 253.8629 44.827 246.8629 44.827 L 6.44 46.0268 Q -0.56 46.0268 -0.56 39.0268 L -0.1888 7.373 Q -0.1888 0.373 6.8112 0.373" fill="none" stroke="#f2f2f2"/></g></svg>